<?xml version="1.0" encoding="UTF-8"?>
<svg version="1.0" viewBox="0 0 800 800" xmlns="http://www.w3.org/2000/svg" xmlns:xlink="http://www.w3.org/1999/xlink">
 <g transform="translate(-330 480)">
  <g id="k" transform="matrix(5.7141 0 0 5.7141 -1555.7 -1508.5)">
   <path id="i" d="m396.84 251.31 28.454 61.992s0.4896 1.185 1.28 0.8586c0.7902-0.3267 0.2988-1.5116 0.2988-1.5116l-23.715-63.956m-0.68 24.12c-0.3465 9.4278 5.4526 14.613 4.6943 23.032-0.7569 8.42 3.8673 13.18 4.9396 16.454 1.0733 3.2744-1.16 5.2323-0.198 5.6982 0.96336 0.4662 3.07-2.1207 2.3833-6.7756-0.68675-4.6549-4.2204-6.0368-3.3898-16.32 0.83-10.283-4.206-12.678-2.98-22.058" fill="#f6b40e" stroke="#85340a" stroke-width="1.1116"/>
   <use transform="matrix(.92388 .38268 -.38268 .92388 126.12 -134.04)" width="100%" height="100%" xlink:href="#i"/>
   <use transform="matrix(.70711 .70711 -.70711 .70711 293.93 -209.62)" width="100%" height="100%" xlink:href="#i"/>
   <use transform="matrix(.38268 .92388 -.92388 .38268 477.9 -215.22)" width="100%" height="100%" xlink:href="#i"/>
   <path id="j" d="m404.31 274.41c0.45334 9.0538 5.5867 13.063 4.5787 21.314 2.2133-6.5249-3.1233-11.583-2.82-21.22m-7.6487-23.757 19.487 42.577-16.329-43.887" fill="#85340a"/>
   <use transform="matrix(.92388 .38268 -.38268 .92388 126.12 -134.04)" width="100%" height="100%" xlink:href="#j"/>
   <use transform="matrix(.70711 .70711 -.70711 .70711 293.93 -209.62)" width="100%" height="100%" xlink:href="#j"/>
   <use transform="matrix(.38268 .92388 -.92388 .38268 477.9 -215.22)" width="100%" height="100%" xlink:href="#j"/>
  </g>
  <use transform="matrix(0 1 -1 0 650 -810)" width="100%" height="100%" xlink:href="#k"/>
  <use transform="matrix(-1 0 0 -1 1460 -160)" width="100%" height="100%" xlink:href="#k"/>
  <use transform="matrix(0 -1 1 0 810 650)" width="100%" height="100%" xlink:href="#k"/>
  <circle cx="730" cy="-79.998" r="158.73" fill="#f6b40e" stroke="#85340a" stroke-width="8.5712"/>
  <path id="m" d="m784.11-113.94c-10.838 1.7e-4 -21.217 4.696-27.32 14.464 12.209 10.987 39.179 12.181 57.496-1.25-7.9329-8.5449-19.339-13.214-30.177-13.214zm-0.17828 2.4999c10.549-0.19142 20.409 4.6539 21.785 9.4637-12.209 13.43-31.718 12.264-43.927 2.4999 5.3416-8.5466 13.937-11.815 22.142-11.964z" fill="#843511"/>
  <use transform="matrix(-1 0 0 1 1461.4 0)" width="100%" height="100%" xlink:href="#p"/>
  <use transform="matrix(-1 0 0 1 1461.4 0)" width="100%" height="100%" xlink:href="#l"/>
  <use transform="translate(107.78)" width="100%" height="100%" xlink:href="#o"/>
  <use transform="matrix(-1 0 0 1 1461.4 0)" width="100%" height="100%" xlink:href="#n"/>
  <path d="m705.71-58.056c-5.2194 0.95243-8.9283 5.5842-8.9283 10.892 0 6.065 5.014 10.892 11.071 10.892 3.5809 0 6.8712-1.696 8.9283-4.6427 4.2257 3.1779 10.083 3.5148 13.214 3.5713 0.4817 0.01143 1.1035 0 1.4285 0 3.1308-0.05714 8.9883-0.3937 13.214-3.5713 2.0571 2.9468 5.3474 4.6427 8.9283 4.6427 6.057 0 11.071-4.8278 11.071-10.892 0-5.3083-3.7095-9.9403-8.9283-10.892 2.9314 1.0337 4.8213 3.8656 4.8213 6.9644 0 4.0422-3.2641 7.3209-7.3209 7.3209-3.8879 0-7.093-3.0865-7.321-6.9644-1.1921 2.3792-5.909 9.4575-15.178 9.8214-9.2695-0.36342-13.986-7.4421-15.178-9.8214-0.22856 3.8776-3.4333 6.9644-7.3209 6.9644-4.0571 0-7.321-3.2791-7.321-7.3209 0-3.0985 1.89-5.9301 4.8213-6.9644z" fill="#85340a"/>
  <path d="m717.66-25.542c-12.217 0-17.045 11.067-28.035 18.393 6.1067-2.4361 10.912-7.2529 19.463-12.143 8.5483-4.8823 15.838 1.0714 20.714 1.0714h0.17828c4.8753 0 12.165-5.9518 20.714-1.0714 8.5523 4.8907 13.536 9.7066 19.642 12.143-10.99-7.3255-15.997-18.393-28.214-18.393-2.4376 0-7.2661 1.3174-12.143 3.7499h-0.17828c-4.8761-2.4366-9.7043-3.7499-12.143-3.7499z" fill="#85340a"/>
  <path d="m713.54-11.086c-4.8222 0.21371-11.197 1.1814-20.357 3.9285 21.984-4.8818 26.835 2.4999 36.606 2.4999h0.17828c9.7712 0 14.621-7.3827 36.606-2.4999-24.424-7.3255-29.28-2.4999-36.606-2.4999h-0.17828c-4.5784 0-8.2124-1.7851-16.25-1.4285z" fill="#85340a"/>
  <path d="m694.28-7.3144c-1.4182 0.017142-2.964 0.028571-4.6427 0.17828 25.645 2.4437 13.317 17.142 40.177 17.142h0.17828c26.86 0 14.711-14.699 40.356-17.142-26.86-2.4376-18.369 13.393-40.356 13.393h-0.17828c-20.614 0-14.262-13.837-35.535-13.571z" fill="#85340a"/>
  <path d="m752 32.342c0-12.133-9.8472-21.979-21.978-21.979-12.133 0-21.978 9.8454-21.978 21.979 2.4171-10.177 11.523-17.367 21.978-17.367 10.476 0 19.565 7.1918 21.978 17.367z" fill="#85340a"/>
  <path id="l" d="m631.32-114.17c28.083-24.416 63.484-28.083 83.026-9.7632 4.7827 6.4038 7.8472 13.251 9.1049 20.397 2.4582 13.902-1.8874 28.923-12.781 44.318 1.2291-0.0057 3.677 1.2137 4.8959 2.4376 9.6952-18.537 13.124-37.577 9.9426-55.686-0.83312-4.7313-2.1342-9.3883-3.8262-13.918-26.86-21.972-63.484-24.416-90.346 12.215z" fill="#85340a"/>
  <path id="p" d="m675.26-121.48c15.866 0 19.534 3.6668 26.86 9.7712 7.3329 6.1044 10.99 4.8804 12.209 6.1044 1.2137 1.224 0 4.8804-2.4376 3.6565-2.4376-1.224-7.3329-3.6565-14.647-9.7632-7.333-6.1118-14.647-6.1044-21.978-6.1044-21.978 0-34.188 18.312-36.624 17.089-2.4376-1.224 12.209-20.757 36.624-20.757z" fill="#85340a"/>
  <use transform="translate(-109.6)" width="100%" height="100%" xlink:href="#m"/>
  <circle id="o" cx="675.94" cy="-102" r="10.988" fill="#85340a"/>
  <path id="n" d="m645.94-94.626c20.758 15.876 41.513 14.653 53.723 7.3255 12.209-7.3255 12.209-9.7632 9.7712-9.7632-2.4376 0-4.8753 2.4376-14.647 7.3198-9.7712 4.8907-24.416 4.8907-48.833-4.8804z" fill="#85340a"/>
 </g>
</svg>
